HIERARCHY
ROOT Hips
{
	OFFSET -15.124452 -3.255015 -7.033925
	CHANNELS 6 Xposition Yposition Zposition Zrotation Yrotation Xrotation
	JOINT LHipJoint
	{
		OFFSET 3.743161 12.115931 7.258369
		CHANNELS 3 Zrotation Yrotation Xrotation
		JOINT LeftUpLeg
		{
			OFFSET 11.382020 15.456393 5.536875
			CHANNELS 3 Zrotation Yrotation Xrotation
			JOINT LeftLeg
			{
				OFFSET 20.318003 22.601196 21.174555
				CHANNELS 3 Zrotation Yrotation Xrotation
				JOINT LeftFoot
				{
					OFFSET 13.473058 9.120536 19.656052
					CHANNELS 3 Zrotation Yrotation Xrotation
					JOINT LeftToeBase
					{
						OFFSET 21.150522 8.835663 9.673202
						CHANNELS 3 Zrotation Yrotation Xrotation
						End Site
						{
							OFFSET 0.000000 0.000000 0.000000
						}
					}
				}
			}
		}
	}
	JOINT RHipJoint
	{
		OFFSET 12.033111 15.585716 6.906061
		CHANNELS 3 Zrotation Yrotation Xrotation
		JOINT RightUpLeg
		{
			OFFSET 17.184156 14.929330 11.226574
			CHANNELS 3 Zrotation Yrotation Xrotation
			JOINT RightLeg
			{
				OFFSET 6.399166 16.881590 27.357933
				CHANNELS 3 Zrotation Yrotation Xrotation
				JOINT RightFoot
				{
					OFFSET 16.275938 9.895314 17.368757
					CHANNELS 3 Zrotation Yrotation Xrotation
					JOINT RightToeBase
					{
						OFFSET 35.990788 24.931499 -0.723049
						CHANNELS 3 Zrotation Yrotation Xrotation
						End Site
						{
							OFFSET 0.000000 0.000000 0.000000
						}
					}
				}
			}
		}
	}
	JOINT LowerBack
	{
		OFFSET 12.891642 15.041281 27.040415
		CHANNELS 3 Zrotation Yrotation Xrotation
		JOINT Spine
		{
			OFFSET 26.715063 31.929598 43.739033
			CHANNELS 3 Zrotation Yrotation Xrotation
			JOINT Spine1
			{
				OFFSET 42.911655 77.900696 36.320271
				CHANNELS 3 Zrotation Yrotation Xrotation
				JOINT Neck
				{
					OFFSET 40.816662 61.113541 27.121813
					CHANNELS 3 Zrotation Yrotation Xrotation
					JOINT Neck1
					{
						OFFSET -6.710614 -63.732517 -57.002834
						CHANNELS 3 Zrotation Yrotation Xrotation
						JOINT Head
						{
							OFFSET 13.958695 27.290005 33.575272
							CHANNELS 3 Zrotation Yrotation Xrotation
							End Site
							{
								OFFSET 0.000000 0.000000 0.000000
							}
						}
					}
				}
				JOINT LeftShoulder
				{
					OFFSET 38.076225 24.182892 24.367064
					CHANNELS 3 Zrotation Yrotation Xrotation
					JOINT LeftArm
					{
						OFFSET 28.166670 15.897768 5.040406
						CHANNELS 3 Zrotation Yrotation Xrotation
						JOINT LeftForeArm
						{
							OFFSET 25.444700 48.072590 58.799526
							CHANNELS 3 Zrotation Yrotation Xrotation
							JOINT LeftHand
							{
								OFFSET 75.375206 44.416782 61.115517
								CHANNELS 3 Zrotation Yrotation Xrotation
								JOINT LeftFingerBase
								{
									OFFSET 79.465195 78.671509 80.904716
									CHANNELS 3 Zrotation Yrotation Xrotation
									JOINT LeftHandIndex1
									{
										OFFSET 123.524231 95.875328 73.272781
										CHANNELS 3 Zrotation Yrotation Xrotation
										End Site
										{
											OFFSET 0.000000 0.000000 0.000000
										}
									}
								}
								JOINT LThumb
								{
									OFFSET 64.708717 57.147003 51.077709
									CHANNELS 3 Zrotation Yrotation Xrotation
									End Site
									{
										OFFSET 0.000000 0.000000 0.000000
									}
								}
							}
						}
					}
				}
				JOINT RightShoulder
				{
					OFFSET 44.262070 58.120049 73.529175
					CHANNELS 3 Zrotation Yrotation Xrotation
					JOINT RightArm
					{
						OFFSET 46.123745 33.688728 48.714790
						CHANNELS 3 Zrotation Yrotation Xrotation
						JOINT RightForeArm
						{
							OFFSET 96.783577 117.174477 90.322273
							CHANNELS 3 Zrotation Yrotation Xrotation
							JOINT RightHand
							{
								OFFSET 103.662445 87.276657 115.065025
								CHANNELS 3 Zrotation Yrotation Xrotation
								JOINT RightFingerBase
								{
									OFFSET 236.953857 115.993675 204.805878
									CHANNELS 3 Zrotation Yrotation Xrotation
									JOINT RightHandIndex1
									{
										OFFSET 14.499308 298.548981 143.238007
										CHANNELS 3 Zrotation Yrotation Xrotation
										End Site
										{
											OFFSET 0.000000 0.000000 0.000000
										}
									}
								}
								JOINT RThumb
								{
									OFFSET 424.169403 550.963928 1826.588745
									CHANNELS 3 Zrotation Yrotation Xrotation
									End Site
									{
										OFFSET 832.064758 606.445923 -166.591751
									}
								}
							}
						}
					}
				}
			}
		}
	}
}
MOTION
Frames: 10
Frame Time: 0.008333
5.192920 17.402412 27.881271 -6.316529 -10.488339 11.396385 7.850956 0.711924 3.099150 -15.827861 2.510607 -17.398159 -2.271181 5.805267 27.580370 5.923222 5.710330 11.644655 2.270404 0.683751 5.454872 -7.842267 -6.241731 1.440637 2.163805 23.773296 -2.481545 6.430493 11.443124 87.626205 16.275799 60.296505 61.059460 0.962497 6.891589 -25.121281 14.889389 7.168705 42.772900 0.239878 -34.407387 17.510448 20.835545 19.958696 -7.879320 -102.305229 -34.004662 -58.875114 2.614527 -8.069767 23.425522 3.281785 1.471754 24.511555 17.630003 8.630965 9.309545 -81.568962 -5.479571 -173.291519 -214.554642 6.271044 1.690261 14.210507 15.742492 328.756012 167.730118 123.876595 239.456406 -7.125000 0.000000 0.000000 -271.215759 -389.813995 -696.038025 -51.500702 -7.678358 7.135206 206.999146 98.133156 176.993271 133.312424 -196.253204 5.686688 -27.900982 -84.789062 -1219.576904 -4993.086426 -1348.785278 189.336456 7.125000 0.000000 0.000000 -10520.705078 -58.153610 -38119.984375
7.355570 18.618382 81.263290 -2.871215 -5.553782 26.793724 13.316337 8.017942 20.217966 27.915415 51.597191 28.127190 -4.051752 1.323298 2.592604 6.924422 33.311459 47.198631 5.134400 19.386751 67.870895 3.328873 -1.701804 1.990983 23.997580 37.981194 27.883389 10.851271 20.460178 65.183304 5.763978 34.853687 60.657207 6.181868 47.255795 116.460945 47.679470 30.250303 91.479919 15.400322 24.686298 108.859940 114.577728 109.870140 211.238724 157.474945 133.280975 190.017914 89.177788 138.332047 203.081711 59.887047 37.583977 64.646622 52.746037 38.393864 19.695194 24.438042 239.962051 420.327271 241.302567 368.407593 447.542236 37.514191 59.816746 1121.871094 555.415283 1237.082764 1204.291382 -7.125000 0.000000 0.000000 1819.007080 1131.402588 1355.551514 141.376389 88.083511 71.982368 738.110352 804.555664 2438.499756 1487.611328 995.388794 923.452026 76.464615 55.199425 892.421570 1583.457764 3146.123291 4820.875488 7.125000 0.000000 0.000000 32131.828125 16713.882812 49497.800781
10.728905 20.589449 176.858688 31.580276 58.790897 75.670082 68.769684 28.911701 39.180393 70.703072 84.496254 138.247955 37.603340 57.062019 180.049057 32.346874 134.331375 148.662308 15.463529 57.619858 201.064087 57.499607 20.966829 36.036964 145.232773 143.464752 218.705780 60.087471 81.362846 253.306671 72.590622 208.579498 350.888275 32.971115 144.147186 404.930969 98.890556 70.049492 154.124680 49.673302 102.153885 143.085007 111.680855 124.382668 246.977127 309.368225 282.485535 397.065094 174.718887 280.736694 387.758911 145.267105 91.702415 178.240997 165.747742 128.059341 49.410404 201.269821 563.460754 1029.592407 764.651855 671.966553 784.644348 57.378174 114.461700 1995.708130 1060.344482 1973.657104 1641.068848 -7.125000 0.000000 0.000000 2125.199463 1806.558838 2057.621094 256.526398 147.400757 87.288246 856.290039 996.526855 2224.134277 1512.695435 987.701050 1351.679932 161.886444 271.135773 3252.069824 16399.255859 9523.799805 19564.207031 7.125000 0.000000 0.000000 26901.166016 1853.803467 54394.894531
7.699222 18.441530 57.220535 12.198829 27.331537 43.982933 45.754154 15.945413 26.748882 52.356918 45.394768 34.686172 8.490587 32.903694 115.099548 21.530224 101.882248 91.050919 9.895878 27.008945 95.092514 30.673571 10.447999 26.014925 117.748795 90.985268 103.915634 37.830395 53.547874 185.508072 63.933289 154.443924 279.971832 19.048431 92.857292 230.039856 51.678841 32.334763 89.613525 22.181244 40.250389 47.930527 39.814003 75.964241 107.056870 191.129425 191.190201 251.076569 120.130630 166.482498 277.795319 104.756653 63.221046 123.531021 130.406479 89.782715 31.230333 47.872787 292.071411 360.037018 254.410431 267.600586 364.724884 34.283474 81.104904 845.350891 458.110962 675.043091 679.516663 -7.125000 0.000000 0.000000 1238.165283 1240.258057 1720.109741 234.299896 116.624550 55.917011 727.299561 961.568420 2224.483887 911.370667 224.272797 205.132812 22.233620 124.411057 2011.857666 9424.623047 3183.716797 11781.291992 7.125000 0.000000 0.000000 -11202.010742 29228.187500 113076.046875
6.685971 16.709795 -20.068083 -12.140612 -18.467373 -11.758900 -13.642187 -19.742195 -23.419107 -47.859070 -30.762722 -63.170963 -18.776384 -9.702754 -43.381828 -5.438492 -7.410996 -24.573141 -0.714024 -27.618277 -91.083855 -36.827339 -17.237329 -16.407921 -20.731680 -42.571373 -109.204254 -17.201309 -24.687660 -66.979156 -14.860226 -85.924835 -107.521736 -16.681389 -29.332285 -90.309174 -12.519584 -26.295502 -29.883121 -24.381701 -37.001816 -4.174980 -39.386620 -79.352898 -274.868530 -300.357819 -180.625519 -182.483337 -26.965137 -106.798698 -85.934120 -78.414513 -42.891891 -78.447647 -49.317204 -60.165798 -17.548744 -182.710205 -98.067101 -300.041962 -116.284042 -183.342987 -291.553253 -22.607307 -47.435101 -1055.302124 -226.665070 -699.447021 -359.644806 -7.125000 0.000000 0.000000 -846.807983 -1008.857178 -602.404175 -118.296288 -88.144531 -24.352226 153.451508 -178.445724 -195.853790 -635.334900 -264.431885 -555.663330 -3.904585 -133.980255 -844.581177 -5853.286621 -873.063049 -4268.555664 7.125000 0.000000 0.000000 -10481.199219 6547.133789 -38370.960938
12.965501 17.967964 43.577148 0.109864 8.165601 12.985426 9.348879 -6.111888 -3.972351 -4.783754 3.756754 -23.349237 -7.974350 2.874098 9.480303 5.719823 27.943636 16.970535 3.690436 -6.414582 2.407319 -4.014290 -2.623768 -0.163639 26.804594 19.093220 15.162407 12.757834 4.395879 71.404587 22.932276 87.107422 92.070648 2.204480 18.130772 -0.323449 8.089609 0.958717 36.489571 -1.877582 5.676713 1.174917 -37.659756 -1.816028 166.284134 100.779434 125.540154 1.030168 -2.428905 -29.436863 35.931931 -10.458845 11.207530 17.560673 50.956902 0.612940 1.260523 -111.299057 35.783100 -137.677414 115.032516 -27.454803 3.236563 4.758495 39.648117 44.744591 313.901917 -22.953316 225.508438 -7.125000 0.000000 0.000000 936.431946 569.769409 1622.277100 44.150551 87.370125 1.827426 250.489014 -253.984650 599.948669 -282.371460 485.546997 -79.933571 129.783249 11.450237 4465.530762 3137.865479 4270.530762 -5146.569824 7.125000 0.000000 0.000000 2047.588257 -9227.781250 -68869.687500
10.754950 18.848385 95.846458 4.378932 4.123036 1.614619 -5.360909 -14.549680 -13.059264 -36.012238 -32.960663 -71.143600 -20.990261 -18.618843 -44.590515 -13.088336 -69.253052 -80.312401 -5.800086 -35.699768 -90.143188 -47.981651 -25.886087 -33.201305 -112.003479 -93.320061 -179.871368 -37.772926 -50.449986 -112.599365 -39.074070 -102.048759 -191.603821 -29.002211 -85.546608 -247.245224 -30.636356 -21.349762 10.327902 -36.371647 -51.929352 -125.412735 -33.268879 -85.296562 -12.646772 -208.009430 -175.121643 -306.472778 -93.543823 -148.077820 -102.668243 -63.437164 -49.356091 -70.595116 -53.836876 -70.702415 -14.507172 -273.417175 -101.450851 -619.990906 -290.209625 -586.993530 -599.467957 -39.056953 -58.115334 -1539.012939 -497.039246 -1164.729980 -568.549438 -7.125000 0.000000 0.000000 -418.386688 -1001.974609 -728.139404 -205.741745 8.166960 -46.268467 280.887939 -635.555725 855.847778 -1108.252075 277.807220 -866.407043 163.159668 -104.559181 2612.703125 -3261.052246 1617.903687 -14237.188477 7.125000 0.000000 0.000000 -15855.803711 25192.361328 -68024.796875
13.460410 19.499807 89.279709 8.954644 28.972397 64.512749 70.207565 21.195969 29.960890 37.126884 28.112543 78.317902 24.578159 35.185669 133.387924 22.647118 90.226089 123.690346 13.371164 48.623928 214.582291 65.982796 27.358440 49.989082 135.861389 150.589386 241.815979 65.127495 81.899414 320.369812 58.341404 261.121704 346.571289 31.864218 139.921982 405.199463 91.628319 91.045914 189.604874 77.369392 223.689224 145.460449 239.153702 134.688721 553.709778 369.057739 293.688171 337.777039 152.777649 271.943207 409.423920 151.507858 79.398560 160.833481 140.412003 99.742523 44.411274 123.977509 662.405640 794.609802 930.183960 380.151550 378.393433 25.566031 97.975449 1379.052734 879.616333 1372.124268 1407.322021 -7.125000 0.000000 0.000000 2638.118896 1856.062256 3095.916504 211.536804 275.873962 43.441719 830.188843 375.127625 3329.564697 951.683105 1976.004395 1508.128296 541.747803 350.747711 6291.495117 19074.062500 12044.214844 19023.794922 7.125000 0.000000 0.000000 31365.302734 59827.050781 -4675.850586
5.617922 18.979601 100.880402 11.251013 24.735329 36.133568 42.277771 2.230624 1.367330 -7.192760 -11.092383 -18.922863 -2.542524 6.920550 24.790039 4.244186 16.056131 53.293732 5.936221 8.190750 65.928528 5.471277 -9.325945 3.634387 -13.603464 18.690147 12.300602 6.656799 7.135152 41.981846 -9.002872 3.360662 17.461205 3.287211 31.483850 50.235538 21.699957 14.287338 56.681915 9.781698 75.966682 54.305527 91.040062 33.704681 148.034470 63.881050 73.615128 116.239876 66.826584 79.189682 165.136887 99.929810 40.450687 79.756126 78.448242 65.889671 27.022858 45.474243 283.075531 295.476624 226.192062 137.676575 193.176483 19.999567 31.616055 1056.202515 623.320374 795.656189 874.739807 -7.125000 0.000000 0.000000 1486.010742 850.710449 1060.961670 121.414780 106.506500 61.491066 243.062256 414.963409 789.910522 772.139160 886.278381 232.745773 77.036812 119.018440 862.458801 14604.404297 2125.390137 12746.297852 7.125000 0.000000 0.000000 19959.410156 5406.468750 -2242.331055
1.360264 18.391701 62.918304 3.119483 12.784638 32.970379 47.463188 5.705866 5.849392 8.419376 9.990652 -7.680198 -0.892348 8.416465 30.088324 1.288471 -12.194390 10.678290 1.033908 -11.673141 6.801648 -5.548789 -14.598142 5.706488 12.042247 27.821903 1.460648 8.490154 14.142646 137.080063 34.869358 102.423660 72.868492 1.581209 25.210180 47.603783 33.340496 11.458654 53.546635 -4.733601 37.556267 11.751466 26.776043 -11.300841 -30.002529 -32.954418 -26.625479 93.568222 64.956284 32.572903 6.615115 36.088188 3.360525 29.245543 39.842205 13.817878 -2.737789 -39.896954 63.416916 76.972359 -160.785812 -49.716339 88.116234 10.649977 -28.826675 -296.863312 -133.538620 -204.077499 115.267273 -7.125000 0.000000 0.000000 -170.826523 -462.934509 -835.442993 12.312690 -98.936348 21.418940 -291.982300 8.309103 -2478.442871 -211.888962 -31.164345 -206.870621 -72.135544 -78.959679 -6306.717285 -6040.408203 -10977.463867 -1231.118286 7.125000 0.000000 0.000000 15359.239258 6737.540039 83101.679688
